<svg xmlns="http://www.w3.org/2000/svg" width="1380" height="412" viewBox="0 0 1380 412">
  <defs>
    <marker id="arrow" markerWidth="10" markerHeight="7" refX="9" refY="3.5" orient="auto">
      <polygon points="0 0, 10 3.5, 0 7" fill="#475569"/>
    </marker>
    <style>
      .node{fill:#f8fafc;stroke:#334155;stroke-width:2}
      .pill{fill:#e2e8f0;stroke:#334155;stroke-width:2}
      .text{font:14px 'Microsoft YaHei',sans-serif;fill:#0f172a}
      .edge{stroke:#475569;stroke-width:2;marker-end:url(#arrow);fill:none}
      .edge-label{font:12px 'Microsoft YaHei',sans-serif;fill:#334155}
      .title{font:18px 'Microsoft YaHei',sans-serif;fill:#111827;font-weight:700}
    </style>
  </defs>
  <text x="24" y="34" class="title">Agent Workflow</text>
  <path class="edge" d="M318.0 188.0 C366.0 188.0, 312.0 328.0, 360.0 328.0"/>
  <text class="edge-label" x="339.0" y="250.0" text-anchor="middle">block</text>
  <path class="edge" d="M318.0 188.0 C366.0 188.0, 312.0 108.0, 360.0 108.0"/>
  <text class="edge-label" x="339.0" y="140.0" text-anchor="middle">allow</text>
  <path class="edge" d="M444.0 136.0 C492.0 136.0, 396.0 160.0, 444.0 160.0"/>
  <text class="edge-label" x="444.0" y="140.0" text-anchor="middle">tools</text>
  <path class="edge" d="M528.0 108.0 C576.0 108.0, 532.0 328.0, 580.0 328.0"/>
  <text class="edge-label" x="554.0" y="210.0" text-anchor="middle">answer</text>
  <path class="edge" d="M528.0 188.0 C576.0 188.0, 532.0 108.0, 580.0 108.0"/>
  <text class="edge-label" x="554.0" y="140.0" text-anchor="middle">tools</text>
  <path class="edge" d="M528.0 188.0 C619.7 188.0, 698.3 248.0, 790.0 248.0"/>
  <text class="edge-label" x="659.0" y="210.0" text-anchor="middle">summarize</text>
  <path class="edge" d="M748.0 108.0 L790.0 108.0"/>
  <text class="edge-label" x="769.0" y="100.0" text-anchor="middle">action</text>
  <path class="edge" d="M748.0 108.0 C796.0 108.0, 742.0 248.0, 790.0 248.0"/>
  <text class="edge-label" x="769.0" y="170.0" text-anchor="middle">summarize</text>
  <path class="edge" d="M116.0 181.0 C164.0 181.0, 102.0 188.0, 150.0 188.0"/>
  <path class="edge" d="M790.0 108.0 C881.7 108.0, 436.3 188.0, 528.0 188.0"/>
  <path class="edge" d="M528.0 328.0 C696.7 328.0, 841.3 248.0, 1010.0 248.0"/>
  <path class="edge" d="M748.0 328.0 C796.0 328.0, 742.0 248.0, 790.0 248.0"/>
  <path class="edge" d="M958.0 248.0 L1010.0 248.0"/>
  <path class="edge" d="M1178.0 248.0 C1226.0 248.0, 1192.0 241.0, 1240.0 241.0"/>
  <ellipse class="pill" cx="70.0" cy="181.0" rx="46.0" ry="21.0"/>
  <text class="text" x="70.0" y="186.0" text-anchor="middle">START</text>
  <rect class="node" x="150" y="160" width="168" height="56" rx="12" ry="12"/>
  <text class="text" x="234.0" y="193.0" text-anchor="middle">input_safety</text>
  <rect class="node" x="360" y="80" width="168" height="56" rx="12" ry="12"/>
  <text class="text" x="444.0" y="113.0" text-anchor="middle">decide</text>
  <rect class="node" x="360" y="160" width="168" height="56" rx="12" ry="12"/>
  <text class="text" x="444.0" y="193.0" text-anchor="middle">agent</text>
  <rect class="node" x="580" y="80" width="168" height="56" rx="12" ry="12"/>
  <text class="text" x="664.0" y="113.0" text-anchor="middle">tool_safety</text>
  <rect class="node" x="790" y="80" width="168" height="56" rx="12" ry="12"/>
  <text class="text" x="874.0" y="113.0" text-anchor="middle">action</text>
  <rect class="node" x="360" y="300" width="168" height="56" rx="12" ry="12"/>
  <text class="text" x="444.0" y="333.0" text-anchor="middle">blocked</text>
  <rect class="node" x="580" y="300" width="168" height="56" rx="12" ry="12"/>
  <text class="text" x="664.0" y="333.0" text-anchor="middle">answer</text>
  <rect class="node" x="790" y="220" width="168" height="56" rx="12" ry="12"/>
  <text class="text" x="874.0" y="253.0" text-anchor="middle">summarize</text>
  <rect class="node" x="1010" y="220" width="168" height="56" rx="12" ry="12"/>
  <text class="text" x="1094.0" y="253.0" text-anchor="middle">output_safety</text>
  <ellipse class="pill" cx="1286.0" cy="241.0" rx="46.0" ry="21.0"/>
  <text class="text" x="1286.0" y="246.0" text-anchor="middle">END</text>
</svg>