<svg xmlns="http://www.w3.org/2000/svg" width="180" height="180" viewBox="0 0 180 180"><defs><clipPath id="SVGNlJoteyd"><path fill="#37474f" d="M.899 144.42h144.42V0H.899z"/></clipPath></defs><g clip-path="url(#SVGNlJoteyd)" transform="matrix(1.0691 0 0 -1.0691 9.4 166.143)"><g fill-rule="evenodd"><path fill="#f0d6b7" d="m107.96 30.661l-12.506-1.876l-16.883-1.876l-10.943-.312l-10.629.312l-8.13 2.502l-7.19 7.815l-5.628 15.945l-1.25 3.44l-7.504 2.5l-4.377 7.191l-3.126 10.317l3.44 9.067l8.128 2.814l6.565-3.127l3.127-6.878l3.752.626l1.25 1.563l-1.25 7.19l-.313 9.068l1.876 12.505l-.074 7.143l5.701 9.114l10.005 7.19l17.508 7.504l19.383-2.814l16.883-12.193l7.817-12.505l5.002-9.067l1.25-22.51l-3.752-19.384l-6.877-17.195l-6.566-9.066"/><path fill="#335061" d="m97.334-23.425l-44.709-1.876v-7.503l3.752-26.262l-1.876-2.19l-31.264 10.63l-2.19 3.752l-3.126 35.328l-7.19 21.26l-1.563 5.002l25.01 17.195l7.818 3.127l6.877-8.441l5.94-5.315l6.88-2.188l3.125-.938L68.57 1.899l2.814-3.44l7.19 2.502l-5.002-9.693l27.2-12.818l-3.439-1.876"/><path fill="#6d6b6d" d="m23.238 85.687l8.128 2.814l6.566-3.127l3.127-6.878l3.751.626l.938 3.751l-1.876 7.19l1.876 17.197l-1.563 9.379l5.627 6.565l12.193 9.692l-3.44 4.69l-17.194-8.442l-7.191-5.627l-4.064-8.754l-6.253-8.442l-1.876-10.005z"/><path fill="#dcd9d8" d="M36.055 115.07s4.69 11.567 23.448 17.195c18.759 5.628.938 4.065.938 4.065l-20.321-7.817l-7.817-7.816l-3.438-6.253zm-9.379-27.195s-6.566 21.886 18.446 25.012l-.938 3.752l-17.195-4.065l-5.003-16.257l1.251-10.63z"/></g><g fill="#f7e4cd"><path fill-rule="evenodd" d="m36.681 58.799l4.094 3.966s1.847-.214 2.16-2.402c.312-2.19 1.25-21.886 14.693-32.516c1.227-.97-10.004 1.564-10.004 1.564L37.62 45.042m56.589 19.697s.729 9.477 3.28 8.748c2.553-.729 2.553-3.28 2.553-3.28s-6.198-4.01-5.833-5.468"/><path d="M120.16 99.442s-5.153-1.088-5.628-5.628c-.474-4.54 5.628-.938 6.566-.625m-38.771 5.94s-6.879-.938-6.879-5.314c0-4.378 7.817-4.065 10.005-2.19"/><g fill-rule="evenodd"><path d="M39.807 78.808s-11.881 7.191-13.131.312c-1.25-6.877-4.065-11.88 1.876-19.07l-4.064 1.25l-3.752 9.691l-1.25 9.38l7.19 7.504l8.129-.626l4.69-3.751zm5.628 19.696s5.315 27.512 32.203 32.827c22.136 4.375 33.765-.938 38.142-5.94c0 0-19.696 23.447-38.455 16.257c-18.759-7.191-32.514-20.322-32.202-28.762c.532-14.377.313-14.382.313-14.382m72.534 23.766s-9.066.312-9.38-7.817c0 0 0-1.25.625-2.5c0 0 7.192 8.129 11.568 3.751"/><path d="M78.268 111.1s-1.56 12.477-12.199 5.223c-6.878-4.69-6.252-11.255-5.002-12.505s.91-3.77 1.862-2.04c.952 1.728.638 7.356 4.078 8.918c3.439 1.564 9.077 3.31 11.26.404"/></g></g><path fill="#49728b" fill-rule="evenodd" d="M48.874 26.597L19.486 13.466s12.193-48.46 5.94-63.467l-4.377 1.563l-.313 18.446l-8.128 35.015l-3.44 9.692l30.639 20.633l9.067-8.753M51.896-.206l4.17-5.087v-18.76h-5.003s-.625 13.132-.625 14.696c0 1.563.624 7.19.624 7.19M52-26.866l-14.069-.625l4.065-2.813L52-31.868"/><g fill-rule="evenodd"><path fill="#335061" d="m100.15-23.739l11.567.313l2.814-28.764l-11.881-1.563z"/><path fill="#335061" d="m103.27-23.739l17.508.938s7.19 18.133 7.19 19.07c0 .939 6.253 26.263 6.253 26.263l-14.069 14.694l-2.813 2.501l-7.504-7.503V3.148z"/><path fill="#49728b" d="m111.09-21.55l-10.942-2.188l1.563-8.755c4.064-1.876 10.943 3.127 10.943 3.127M111.4 33.162l21.885-16.257l.626 7.503l-16.57 15.32l-5.94-6.566"/><path fill="#fafafa" d="m62.85-85.332l-6.473 26.266l-3.22 19.38l-.531 14.385l29.296 1.56l18.226.003l-1.658-32.83l2.814-25.324l-.312-4.69l-23.76-1.876z"/><path fill="#dcd9d8" d="M96.083-23.426s-1.563-32.515 3.127-55.65c0 0-9.38-5.94-23.136-7.503l26.262.938l3.126 1.875l-3.752 51.273l-.938 10.944"/><path fill="#fafafa" d="m115.06-49.691l12.193 3.44l23.135 1.25l3.44 10.629l-6.254 18.446l-7.19.938l-10.005-3.127l-9.599-4.686l-5.095.935l-3.972-1.56"/><path fill="#dcd9d8" d="M114.84-43.435s8.128 3.751 9.38 3.438L120.78-22.8l4.065 1.563s2.814-16.257 2.814-18.133c0 0 17.507-.938 19.07-.938c0 0 3.752 7.191 2.814 14.694l3.44-10.005l.312-5.628l-5.002-7.503l-5.627-1.25l-9.38.312l-3.126 4.064l-10.943-1.563l-3.44-1.25"/></g><path fill="#fafafa" d="M102.56-21.241L95.682-3.733l-7.19 10.317s1.562 4.377 3.75 4.377h7.192l6.878-2.501l-.625-11.568l-3.127-18.134"/><path fill="#dcd9d8" fill-rule="evenodd" d="M103.9-15.297S95.145 1.585 95.145 4.086c0 0 1.563 3.752 3.752 2.814s6.879-3.439 6.879-3.439v5.94l-10.63 2.19l-7.19-.939l12.193-28.763l2.5-.313"/><path fill="#fafafa" d="m65.664 25.968l-8.661.942l-8.13 2.501v-2.814l3.972-4.38l12.506-5.627"/><path fill="#dcd9d8" fill-rule="evenodd" d="M51.689 25.031s9.693-4.065 12.819-3.127l.311-3.748l-8.752 1.872l-5.316 3.752z"/><path fill="#d33833" fill-rule="evenodd" d="M115.03 9.897c-5.305.156-10.098.786-14.294 1.97c.285 1.72-.249 3.408.18 4.647c1.17.843 3.13.83 4.898 1.027c-1.529.752-3.677 1.049-5.44.615c-.042 1.194-.578 1.934-.902 2.868c2.982 1.064 10.024 8.044 13.984 5.732c1.887-1.099 2.689-7.377 2.835-10.43c.122-2.533-.23-5.088-1.261-6.43"/><path fill="none" stroke="#d33833" stroke-width="2" d="M115.03 9.897c-5.305.156-10.098.786-14.294 1.97c.285 1.72-.249 3.408.18 4.647c1.17.843 3.13.83 4.898 1.027c-1.529.752-3.677 1.049-5.44.615c-.042 1.194-.578 1.934-.902 2.868c2.982 1.064 10.024 8.044 13.984 5.732c1.887-1.099 2.689-7.377 2.835-10.43c.122-2.533-.23-5.088-1.261-6.43z"/><path fill="#d33833" fill-rule="evenodd" d="M89.66 18.569q-.021-.603-.047-1.21c-1.656-1.089-4.33-1.076-6.148-1.99c2.68-.117 4.79-.763 6.614-1.672l-.118-3.033c-3.036-2.078-5.81-5.173-9.384-7.122c-1.69-.922-7.622-3.294-9.42-2.875c-1.017.236-1.109 1.499-1.516 2.689c-.866 2.548-2.861 6.605-3.035 10.44c-.222 4.846-.71 12.967 4.51 11.969c4.213-.804 9.113-2.745 12.375-4.527c1.993-1.09 3.146-2.436 6.17-2.669"/><path fill="none" stroke="#d33833" stroke-width="2" d="M89.66 18.569q-.021-.603-.047-1.21c-1.656-1.089-4.33-1.076-6.148-1.99c2.68-.117 4.79-.763 6.614-1.672l-.118-3.033c-3.036-2.078-5.81-5.173-9.384-7.122c-1.69-.922-7.622-3.294-9.42-2.875c-1.017.236-1.109 1.499-1.516 2.689c-.866 2.548-2.861 6.605-3.035 10.44c-.222 4.846-.71 12.967 4.51 11.969c4.213-.804 9.113-2.745 12.375-4.527c1.993-1.09 3.146-2.436 6.17-2.669z"/><path fill="#d33833" fill-rule="evenodd" d="M92.675 12.788c-.463 2.64-.999 3.393-.792 5.695c7.04 4.693 8.361-8.061.792-5.695"/><path fill="none" stroke="#d33833" stroke-width="2" d="M92.675 12.788c-.463 2.64-.999 3.393-.792 5.695c7.04 4.693 8.361-8.061.792-5.695z"/><g fill-rule="evenodd"><path fill="#ef3d3a" d="M102.87 10.649s-2.19 3.127-.626 4.065s3.127 0 4.065 1.563s0 2.501.313 4.377s1.877 2.189 3.44 2.501c1.562.313 5.94.938 6.565-.625l-1.876 5.627l-3.752 1.25l-11.88-6.877l-.626-3.44v-6.877M70.041.331c-.376 4.88-.773 9.752-1.215 14.626c-.662 7.279 1.748 6.009 8.057 6.009c.964 0 5.933-1.15 6.289-1.876c1.705-3.483-2.851-2.709 1.964-5.335c4.065-2.216 11.246 1.346 9.603 6.273c-.919 1.095-4.789.341-6.176 1.06l-7.327 3.8c-3.108 1.612-10.29 3.962-13.603 1.709c-8.395-5.71.53-19.974 3.524-25.93"/><path fill="#231f20" d="M78.268 111.1c-8.521 1.985-12.755-3.566-15.338-9.323c-2.306.559-1.389 3.695-.806 5.294c1.525 4.194 7.672 9.778 12.694 9.02c2.161-.325 5.086-2.301 3.45-4.99m41.522-9.701l.404-.016c1.926-4 3.593-8.238 6.022-11.769c-1.628-3.79-12.322-7.144-12.157-.338c2.313 1.01 6.305.206 8.356 1.497c-1.186 3.254-2.897 6.024-2.625 10.626m-37.16-.11c1.827-3.35 2.422-6.868 5.019-9.4c1.17-1.14 3.444-2.529 2.316-5.698c-.263-.747-2.189-2.414-3.3-2.741c-4.06-1.2-13.521-.248-10.317 4.814c3.358-.157 7.871-2.18 10.38.257c-1.927 3.081-5.363 9.177-4.098 12.768m35.63-34.037c-6.113-3.927-12.93-8.197-22.947-7.207c-2.14 1.86-2.956 6.002-.877 8.737c1.082-1.861.402-5.284 3.419-5.799c5.684-.972 12.299 3.477 16.387 5.032c2.535 4.275-.219 5.847-2.503 8.597c-4.675 5.636-10.947 12.622-10.72 21.06c1.89 1.37 2.053-2.092 2.325-2.722c2.44-5.714 8.585-13.021 13.07-17.912c1.1-1.205 2.914-2.36 3.115-3.157c.582-2.315-1.513-5.09-1.27-6.63m-80.591 4.135c-1.916 1.094-2.372 5.91-4.622 6.048c-3.215.195-2.629-6.25-2.616-10.018c-2.213 2.009-2.602 8.194-.976 11.37c-1.853.91-2.68-1.003-3.708-1.677c1.32 9.595 14.036 4.45 11.922-5.723m84.482-8.13c-2.846-5.417-6.871-11.382-15.222-11.555c-.17 1.75-.3 4.411.009 5.464c6.384.614 10.325 3.863 15.212 6.091m-40-3.512c5.326-2.8 15.114-3.102 22.353-2.89c.388-1.586.379-3.545.394-5.48c-9.305-.463-20.307 1.84-22.747 8.37m-1.013-5.222c3.683-9.247 16.341-8.182 27.016-7.927c-.47-1.2-1.489-2.62-2.755-3.132c-3.42-1.392-12.855-2.448-17.604.074c-3.011 1.601-4.946 5.219-6.596 7.34c-.797 1.024-4.765 3.64-.06 3.645"/><path fill="#81b0c4" d="M117.82 3.516c-4.322-7.402-8.457-15.005-13.585-21.534c2.15 6.32 3.07 16.9 3.394 24.965c4.498 2.105 8.349-.474 10.191-3.43"/><path fill="#231f20" d="M141.07-23.089c-4.839-.969-8.239-5.671-12.959-5.37c2.594 3.658 7.14 5.2 12.959 5.37m2.14-7.572c-3.944-.417-8.576-1.055-12.577-.726c1.894 2.892 9.19 1.894 12.577.726m1.37-6.529c-4.433-.096-9.942-.008-14.155.346c2.492 2.677 11.28.993 14.155-.346"/><path fill="#dcd9d8" d="M109.48-55.057c.636-5.567 2.843-11.207 2.566-17.304c-2.45-.827-3.858-1.55-7.142-1.545c-.232 5.181-.925 13.102-.718 18.041c1.615-.107 3.997 1.154 5.294.808"/><path fill="#f0d6b7" d="M102.33 26.985c-2.226-1.453-4.121-3.267-6.259-4.818c-4.74-.235-7.327.328-10.81 3.05c.057.219.407.121.42.39c5.075-2.262 11.524.92 16.648 1.378"/><path fill="#81b0c4" d="M75.694-7.603c1.394 6.04 6.857 9.17 11.817 12.497c5.12-6.498 8.234-14.855 11.663-22.92c-8.102 2.443-16.38 6.406-23.481 10.423"/><path fill="#231f20" d="M104.18-55.865c-.207-4.94.486-12.86.718-18.041c3.283-.004 4.691.718 7.142 1.545c.276 6.096-1.93 11.737-2.566 17.304c-1.298.346-3.679-.914-5.294-.808m-51.13 28.09c2.165-19.906 5.301-36.639 11.054-54.266c12.766-3.876 28.157-4.214 39.441-.716c-2.072 9.948-1.167 22.06-2.378 32.677c-.912 7.98-.447 16.009-1.698 24.15c-13.673 2.844-33 .665-46.418-1.845zm49.651 1.72c-.115-8.549.383-16.982 1.036-25.542c3.282.493 5.51.822 8.56 1.49c-.99 8.241-.869 17.514-2.886 24.804c-2.332-.023-4.385.027-6.71-.752m16.653 1.378c-1.558.357-3.372.014-4.86-.015c.7-6.969 2.397-14.659 2.995-21.974c2.342-.073 3.593 1.032 5.52 1.403c.102 6.421-.562 15.268-3.655 20.586m25.215-23.038c4.882 1.186 7.952 7.165 6.586 13.305c-.916 4.127-2.548 11.898-4.295 14.538c-1.29 1.953-4.79 4.51-7.584 2.72c-4.545-2.91-12.552-3.755-15.867-7.278c1.662-5.534 2.178-13.135 2.864-20.146c5.678-.354 12.665 1.562 17.387-.471c-3.297-1.068-7.575-1.077-10.423-2.633c2.328-1.125 7.778-.897 11.332-.035M99.17-18.025c-3.43 8.063-6.543 16.42-11.663 22.918c-4.96-3.327-10.423-6.456-11.817-12.497c7.1-4.017 15.379-7.98 23.481-10.422zm8.453 24.971c-.325-8.065-1.245-18.644-3.395-24.965c5.128 6.53 9.263 14.132 13.585 21.534c-1.842 2.957-5.693 5.536-10.19 3.431m-9.582 3.405c-1.943.21-3.592-2.233-6.117-1.177c-.58-.64-1.105-1.333-1.695-1.958c5.579-6.723 8.114-16.262 12.423-24.163c2.312 7.59 2.045 15.904 2.555 24.188c-3.177-.201-4.94 2.873-7.166 3.11m-6.161 8.132c-.208-2.303.328-3.056.791-5.695c7.57-2.367 6.248 10.388-.791 5.695m-8.394 2.755c-3.261 1.782-8.161 3.723-12.374 4.527c-5.222.999-4.732-7.123-4.51-11.968c.173-3.836 2.168-7.893 3.035-10.441c.406-1.19.498-2.453 1.515-2.69c1.798-.418 7.73 1.954 9.42 2.875c3.575 1.95 6.348 5.045 9.384 7.123l.119 3.032c-1.826.91-3.935 1.555-6.615 1.673c1.818.914 4.492.901 6.148 1.989q.025.609.047 1.21c-3.024.234-4.176 1.58-6.17 2.67zm-31.152 5.659c-2.707-2.748 7.592-6.494 10.871-6.696c-.018 1.739.991 3.378.788 4.626c-3.895.684-9.013.232-11.66 2.07zm33.345-1.29c-.013-.27-.363-.172-.42-.39c3.482-2.722 6.07-3.285 10.81-3.05c2.137 1.551 4.033 3.365 6.259 4.818c-5.124-.458-11.574-3.64-16.648-1.379zm30.606-9.282c-.146 3.053-.948 9.332-2.835 10.431c-3.961 2.312-11.002-4.668-13.984-5.732c.324-.934.86-1.674.901-2.868c1.764.434 3.912.137 5.44-.615c-1.767-.198-3.727-.185-4.897-1.027c-.429-1.239.105-2.927-.18-4.647c4.196-1.184 8.989-1.814 14.294-1.97c1.032 1.341 1.383 3.896 1.261 6.429zM47.777 24.24c-.85.606-6.6 8.087-7.388 7.777c-10.405-4.103-20.134-11.199-28.828-17.91c8.29-17.787 11.635-39.579 12.227-60.582c9.496-4.441 17.836-10.844 30.722-11.512c-1.491 10.55-2.852 19.962-3.699 29.895c-3.237 1.365-7.882-.062-10.913.423c-.025 3.651 4.628 1.6 5.015 4.054c.292 1.858-2.56 1.998-1.631 4.923c2.368-.861 3.612-2.763 6.138-3.477c2.309 5.05-.032 13.985.3 18.205c.064.792.397 4.39 2.172 3.759c1.57-.559-.09-9.569.082-13.563c.157-3.68-.444-7.242 1.046-9.552a356 356 0 0 0 38.576 3.16c-2.964 1.272-6.485 2.475-10.345 4.651c-2.093 1.18-8.69 3.635-9.293 5.622c-.964 3.167 2.528 4.855 3.125 7.57c-6.285-3.428-7.511 3.286-8.998 8.042c-1.347 4.308-2.114 7.526-2.445 10.01c-5.414 2.581-11.203 5.195-15.863 8.505m63.009 6.872c8.67 4.204 10.232-15.711 6.834-22.127c.525-1.914 2.331-2.646 3.069-4.366c-4.838-8.667-10.211-16.756-15.148-25.32c3.672 2.286 8.917.409 13.238 2.12c1.58.624 2.722 4.24 3.918 7.133c3.29 7.958 6.743 17.99 8.28 25.586c.346 1.73 1.292 5.5 1.08 7.04c-.378 2.758-4.12 4.803-6.022 6.508c-3.506 3.15-5.714 5.921-9.371 8.866c-1.483-2.189-4.666-3.66-5.878-5.44M27.95 107.99c-4.13-4.545-3.266-13.062-2.766-19.121c7.467 4.697 17.377-.372 17.284-8.36c3.565.094 1.332 4.452.687 7.259c-2.107 9.169 3.55 19.13.256 27.516c-6.395-.485-11.649-3.097-15.46-7.294zm29.558 26.38c-9.352-2.65-21.337-9.446-25.18-17.847c2.976.432 5.041 1.933 7.977 2.119c1.11.072 2.563-.466 3.838-.148c2.54.63 4.685 6.327 6.602 8.447c1.868 2.07 4.114 2.954 5.651 4.841c.988.477 2.448.444 2.504 1.927c-.428.457-.879.806-1.392.66zm48.681-2.493c-9.707 5.477-26.136 9.596-36.462 4.449c-8.331-4.155-19.593-11.027-23.433-19.737c3.587-8.405-1.062-16.106-1.36-24.64c-.157-4.54 2.139-8.504 2.315-13.446c-1.228-2.025-4.978-2.275-7.574-2.136c-.873 4.372-2.403 9.287-6.906 9.78c-6.371.697-11.03-4.576-11.319-10.085c-.342-6.48 4.978-17.22 12.517-16.475c2.913.287 3.629 3.207 6.802 3.177c1.72-3.432-2.653-4.51-3.103-6.964c-.117-.634.363-3.112.642-4.274c1.37-5.658 4.422-12.982 7.427-17.29c3.814-5.464 11.307-6.288 19.37-6.823c1.44 3.101 6.743 2.846 10.2 2.035c-4.143 1.64-7.993 5.617-11.185 9.137c-3.665 4.039-7.378 8.371-7.566 13.65c6.927-9.61 12.65-18.003 25.246-22.23c9.53-3.196 20.662 1.465 27.986 6.608c3.039 2.137 4.853 5.529 7.013 8.634c8.082 11.626 11.854 28.219 11.024 44.303c-.342 6.633-.327 13.244-2.552 17.706c-2.326 4.666-10.193 8.84-14.8 4.62c-.853 4.537 3.83 7.344 9.331 5.71c-3.922 5.063-8.039 11.145-13.614 14.29zm18.084-149.66c7.585 3.77 21.757 10.149 26.512-.014c1.755-3.746 3.814-10.079 4.723-13.946c1.284-5.456-1.392-16.923-7-18.754c-4.953-1.617-10.733-1.518-16.7-.32c-.702.585-1.484 1.603-2.03 2.665c-4.261.165-8.25-.229-11.615-1.98c.319-3.15-1.812-3.656-3.81-4.305c-1.48-5.872 2.963-13.541 1.9-18.896c-.76-3.815-5.453-4.405-8.902-5.118c-.113-2.12.15-3.89.386-5.683c-.789-2.907-4.327-4.561-7.679-4.967c-11.029-1.326-27.775-1.922-38.384 1.893c-2.96 7.261-5.292 16.093-7.758 24.384c-10.346-1.105-18.715 4.464-26.603 8.113c-2.731 1.266-6.51 1.964-7.53 4.138c-.99 2.105-.584 6.14-.83 9.95c-.625 9.733-1.16 19.12-3.73 29.086c-1.154 4.472-3.165 8.418-4.568 12.727C9.358 5.184 7.092 10.12 6.5 14.1c-.877 5.903 4.681 6.232 8.235 8.79c5.494 3.954 9.806 6.142 15.756 9.711c1.762 1.057 7.077 3.733 7.681 4.966c1.202 2.443-2.062 5.888-2.935 7.803c-1.38 3.03-2.1 5.602-2.298 8.59c-4.992.789-8.775 3.76-11.06 7.109c-3.781 5.543-6.403 15.798-3.132 23.599c.257.614 1.536 1.822 1.725 2.765c.372 1.858-.7 4.329-.768 6.305c-.343 10.14 1.716 18.875 8.541 21.932c2.771 11.038 12.688 14.71 22.032 20.195c3.493 2.05 7.343 3.36 11.32 4.824c14.263 5.25 36.15 4.261 47.987-4.692c5.02-3.797 13.044-11.813 15.914-17.617c7.58-15.323 7.042-40.931 1.74-59.571c-.712-2.503-1.746-6.181-3.19-9.187c-1.006-2.1-4.134-6.3-3.754-8.153c.391-1.916 7.132-7.034 8.577-8.428c2.603-2.51 7.548-5.843 7.948-9.012c.43-3.372-1.485-7.984-2.456-11.238c-3.245-10.858-6.412-20.895-10.091-30.576"/><path fill="#f7e4cd" d="M73.674 57.38c.411.548 2.674 1.38 5.84-.144c0 0-3.752-.626-3.44-6.881l-1.564.313s-1.615 5.672-.836 6.712"/><path fill="#1d1919" d="M101.09 3.617a1.72 1.72 0 1 0-3.44.001a1.72 1.72 0 0 0 3.44-.001m1.72-7.972a1.72 1.72 0 1 0-3.44 0a1.72 1.72 0 0 0 3.44 0"/></g></g></svg>